<svg width="21" height="21" viewBox="0 0 21 21" fill="none" xmlns="http://www.w3.org/2000/svg">
<path fill-rule="evenodd" clip-rule="evenodd" d="M20.4345 17.3613C19.951 16.073 19.2098 14.897 18.2562 13.9055C17.3026 12.914 16.1567 12.1278 14.8888 11.5951C15.5783 11.0284 16.1352 10.3171 16.52 9.51146C16.9048 8.70583 17.1082 7.82548 17.1158 6.93257C17.0909 5.36772 16.4874 3.86765 15.4219 2.72211C14.3564 1.57657 12.9044 0.866842 11.3466 0.730075C10.8365 0.666798 10.3205 0.666798 9.81033 0.730075C8.25339 0.868011 6.80266 1.57825 5.73818 2.72367C4.67369 3.86909 4.07088 5.36851 4.04609 6.93257C4.0535 7.82552 4.25681 8.70595 4.64163 9.51161C5.02645 10.3173 5.58341 11.0285 6.27311 11.5951C5.00492 12.1276 3.85876 12.9136 2.90494 13.9052C1.95112 14.8967 1.20972 16.0728 0.726211 17.3613C0.589823 17.738 0.549334 18.1428 0.60843 18.5392C0.667525 18.9355 0.824339 19.3108 1.06469 19.6313C1.3141 19.9605 1.6368 20.2269 2.00713 20.4094C2.37747 20.5919 2.78524 20.6854 3.19802 20.6826H17.9726C18.385 20.6853 18.7924 20.5917 19.1623 20.4092C19.5323 20.2267 19.8545 19.9604 20.1035 19.6313C20.3432 19.3105 20.499 18.9348 20.5569 18.5384C20.6147 18.1419 20.5726 17.7373 20.4345 17.3613ZM6.66031 6.93257C6.67757 5.98478 7.0477 5.07755 7.69827 4.38856C8.34883 3.69956 9.23295 3.27841 10.1775 3.20757C10.4467 3.17423 10.719 3.17423 10.9881 3.20757C11.6985 3.31657 12.3628 3.62715 12.9022 4.10245C13.4416 4.57776 13.8335 5.19787 14.0315 5.88929C14.2295 6.58071 14.2252 7.31444 14.0192 8.00351C13.8132 8.69258 13.4141 9.30809 12.8692 9.77707C12.3243 10.2461 11.6565 10.5489 10.9449 10.6496C10.2333 10.7503 9.50771 10.6447 8.85424 10.3453C8.20077 10.0459 7.6468 9.56534 7.25794 8.96046C6.86909 8.35559 6.66168 7.65182 6.66031 6.93257ZM3.19551 18.1826C3.78744 16.7064 4.80738 15.4414 6.12396 14.5504C7.44054 13.6594 8.99351 13.1833 10.5828 13.1833C12.1722 13.1833 13.7251 13.6594 15.0417 14.5504C16.3583 15.4414 17.3782 16.7064 17.9702 18.1826H3.19802H3.19551Z" fill="#22262A"/>
</svg>
